# xmcd CD database file
#
# Track frame offsets:
#	150
#	13625
#	28465
#	43974
#	57576
#	73029
#	88416
#	103629
#	120443
#	138571
#
# Disc length: 2032 seconds
#
# Revision: 1
# Processed by: cddbd v1.5.2PL0 Copyright (c) Steve Scherf et al.
# Submitted via: CDex 1.51
#
DISCID=9707ee0a
DTITLE=Dustin Evans - Getting On With My Old Life
DYEAR=2002
DGENRE=Country
TTITLE0=WHAT'S GOIN ON WITH YOU
TTITLE1=WHY DOES THE SUN [ALWAYS HAVE TO RIS
TTITLE2=GETTING ON WITH MY LIFE
TTITLE3=STRAIGHT TO MY HEART
TTITLE4=SORRY BOUT THE MESS
TTITLE5=THAT OL' BLACKTOP
TTITLE6=ONLY A LIFETIME WILL TELL
TTITLE7=YOU CANT BLAME ME
TTITLE8=HORSES AND HEARTS
TTITLE9=DAD'S SONG
EXTD=YEAR: 2002
EXTT0=
EXTT1=
EXTT2=
EXTT3=
EXTT4=
EXTT5=
EXTT6=
EXTT7=
EXTT8=
EXTT9=
PLAYORDER=
